<svg xmlns="http://www.w3.org/2000/svg" xmlns:xlink="http://www.w3.org/1999/xlink" width="500" zoomAndPan="magnify" viewBox="0 0 375 374.999991" height="500" preserveAspectRatio="xMidYMid meet" version="1.0"><defs><clipPath id="23557f1e5e"><path d="M 132.722656 124.472656 L 242.109375 124.472656 L 242.109375 250.472656 L 132.722656 250.472656 Z M 132.722656 124.472656 " clip-rule="nonzero"/></clipPath></defs><path fill="#283466" d="M 238.039062 156.675781 L 188.695312 128.125 L 187.359375 127.351562 L 186.023438 128.125 L 140.386719 154.527344 L 136.679688 156.675781 L 135.34375 157.449219 L 135.34375 181.550781 L 139.769531 177.683594 C 142.144531 175.613281 145.183594 174.472656 148.324219 174.472656 C 155.390625 174.472656 161.242188 180.234375 161.363281 187.3125 L 161.363281 187.347656 L 161.367188 187.378906 C 161.367188 194.558594 167.191406 200.394531 174.347656 200.394531 C 181.507812 200.394531 187.328125 194.558594 187.328125 187.382812 C 187.328125 184.761719 188.105469 182.230469 189.574219 180.066406 C 192.011719 176.460938 196.050781 174.3125 200.371094 174.3125 C 207.566406 174.3125 213.414062 180.175781 213.414062 187.382812 C 213.414062 194.558594 219.238281 200.394531 226.398438 200.394531 C 233.554688 200.394531 239.378906 194.558594 239.378906 187.382812 L 239.378906 157.449219 Z M 238.039062 156.675781 " fill-opacity="1" fill-rule="nonzero"/><path fill="#1eb8d1" d="M 148.324219 176.3125 C 154.503906 176.3125 159.535156 181.351562 159.535156 187.546875 C 159.535156 187.574219 159.535156 187.601562 159.539062 187.644531 C 159.605469 191.546875 161.175781 195.214844 163.964844 197.960938 C 166.757812 200.714844 170.441406 202.230469 174.347656 202.230469 C 177.917969 202.230469 181.371094 200.933594 184.066406 198.578125 L 185.558594 197.277344 L 185.558594 244.652344 L 137.113281 216.617188 L 137.113281 187.546875 C 137.113281 181.351562 142.144531 176.3125 148.324219 176.3125 Z M 148.324219 176.3125 " fill-opacity="1" fill-rule="nonzero"/><path fill="#3c4c9b" d="M 200.371094 176.152344 C 206.550781 176.152344 211.582031 181.191406 211.582031 187.386719 C 211.582031 195.574219 218.226562 202.230469 226.394531 202.230469 C 229.964844 202.230469 233.417969 200.9375 236.113281 198.582031 L 237.605469 197.28125 L 237.605469 216.621094 L 189.164062 244.652344 L 189.164062 187.386719 C 189.164062 181.191406 194.1875 176.152344 200.371094 176.152344 Z M 200.371094 176.152344 " fill-opacity="1" fill-rule="nonzero"/><g clip-path="url(#23557f1e5e)"><path fill="#0c0d1b" d="M 186.007812 124.96875 L 133.957031 155.082031 C 133.292969 155.46875 132.832031 156.113281 132.671875 156.847656 C 132.632812 157.035156 132.609375 157.234375 132.609375 157.429688 L 132.609375 217.664062 C 132.609375 218.632812 133.125 219.523438 133.957031 220.007812 L 186.007812 250.125 C 186.019531 250.128906 186.027344 250.136719 186.039062 250.144531 C 186.0625 250.15625 186.089844 250.167969 186.113281 250.183594 C 186.160156 250.207031 186.207031 250.230469 186.257812 250.25 C 186.28125 250.261719 186.300781 250.273438 186.324219 250.28125 C 186.390625 250.3125 186.457031 250.335938 186.523438 250.355469 C 186.546875 250.363281 186.574219 250.371094 186.601562 250.378906 C 186.660156 250.394531 186.714844 250.410156 186.769531 250.421875 C 186.789062 250.425781 186.808594 250.433594 186.828125 250.433594 C 186.90625 250.449219 186.980469 250.460938 187.054688 250.46875 C 187.074219 250.472656 187.09375 250.472656 187.117188 250.472656 C 187.195312 250.480469 187.277344 250.488281 187.359375 250.488281 C 187.4375 250.488281 187.519531 250.480469 187.601562 250.472656 C 187.621094 250.472656 187.640625 250.472656 187.664062 250.46875 C 187.738281 250.460938 187.8125 250.449219 187.886719 250.433594 C 187.90625 250.429688 187.925781 250.425781 187.945312 250.421875 C 188.003906 250.410156 188.054688 250.394531 188.113281 250.378906 C 188.140625 250.371094 188.167969 250.363281 188.191406 250.355469 C 188.261719 250.335938 188.328125 250.308594 188.390625 250.28125 C 188.414062 250.273438 188.433594 250.261719 188.457031 250.25 C 188.507812 250.230469 188.558594 250.207031 188.601562 250.183594 C 188.628906 250.167969 188.652344 250.15625 188.675781 250.144531 C 188.683594 250.136719 188.699219 250.132812 188.707031 250.125 L 240.761719 220.007812 C 241.59375 219.523438 242.109375 218.632812 242.109375 217.664062 L 242.109375 157.433594 C 242.109375 156.464844 241.59375 155.570312 240.761719 155.085938 L 188.710938 124.96875 C 187.875 124.484375 186.84375 124.484375 186.007812 124.96875 Z M 138.011719 216.101562 L 138.011719 187.546875 C 138.011719 181.851562 142.636719 177.214844 148.320312 177.214844 C 154.003906 177.214844 158.628906 181.851562 158.628906 187.546875 C 158.628906 187.585938 158.628906 187.625 158.632812 187.660156 C 158.777344 196.21875 165.773438 203.132812 174.347656 203.132812 C 178.289062 203.132812 181.894531 201.671875 184.652344 199.261719 L 184.652344 243.085938 Z M 236.707031 199.261719 L 236.707031 216.101562 L 190.0625 243.085938 L 190.0625 187.386719 C 190.0625 181.691406 194.6875 177.054688 200.371094 177.054688 C 206.054688 177.054688 210.679688 181.691406 210.679688 187.386719 C 210.679688 196.070312 217.726562 203.136719 226.394531 203.136719 C 230.335938 203.132812 233.941406 201.671875 236.707031 199.261719 Z M 236.707031 158.996094 L 236.707031 187.386719 C 236.707031 193.082031 232.082031 197.714844 226.398438 197.714844 C 220.714844 197.714844 216.089844 193.082031 216.089844 187.386719 C 216.089844 178.699219 209.039062 171.636719 200.371094 171.636719 C 194.96875 171.636719 190.191406 174.386719 187.359375 178.5625 C 185.652344 181.082031 184.65625 184.121094 184.65625 187.386719 C 184.65625 193.082031 180.03125 197.714844 174.347656 197.714844 C 168.664062 197.714844 164.039062 193.082031 164.039062 187.386719 C 164.039062 187.347656 164.039062 187.308594 164.039062 187.273438 C 163.890625 178.714844 156.898438 171.796875 148.324219 171.796875 C 144.382812 171.796875 140.777344 173.261719 138.015625 175.671875 L 138.015625 158.996094 L 141.726562 156.847656 L 187.359375 130.441406 Z M 236.707031 158.996094 " fill-opacity="1" fill-rule="nonzero"/></g></svg>