<svg xmlns="http://www.w3.org/2000/svg" xmlns:xlink="http://www.w3.org/1999/xlink" width="500" zoomAndPan="magnify" viewBox="0 0 375 374.999991" height="500" preserveAspectRatio="xMidYMid meet" version="1.0"><defs><g/><clipPath id="3cf68ee7b6"><path d="M 70.628906 124.472656 L 180.015625 124.472656 L 180.015625 250.472656 L 70.628906 250.472656 Z M 70.628906 124.472656 " clip-rule="nonzero"/></clipPath></defs><path fill="#283466" d="M 175.945312 156.675781 L 126.601562 128.125 L 125.265625 127.351562 L 123.933594 128.125 L 78.292969 154.527344 L 74.585938 156.675781 L 73.25 157.449219 L 73.25 181.550781 L 77.675781 177.683594 C 80.050781 175.613281 83.089844 174.472656 86.230469 174.472656 C 93.296875 174.472656 99.148438 180.234375 99.269531 187.3125 L 99.269531 187.347656 L 99.273438 187.378906 C 99.273438 194.558594 105.097656 200.394531 112.253906 200.394531 C 119.414062 200.394531 125.234375 194.558594 125.234375 187.382812 C 125.234375 184.761719 126.011719 182.230469 127.480469 180.066406 C 129.917969 176.460938 133.957031 174.3125 138.277344 174.3125 C 145.472656 174.3125 151.320312 180.175781 151.320312 187.382812 C 151.320312 194.558594 157.144531 200.394531 164.304688 200.394531 C 171.460938 200.394531 177.285156 194.558594 177.285156 187.382812 L 177.285156 157.449219 Z M 175.945312 156.675781 " fill-opacity="1" fill-rule="nonzero"/><path fill="#1eb8d1" d="M 86.230469 176.3125 C 92.410156 176.3125 97.441406 181.351562 97.441406 187.546875 C 97.441406 187.574219 97.441406 187.601562 97.445312 187.644531 C 97.511719 191.546875 99.082031 195.214844 101.871094 197.960938 C 104.664062 200.714844 108.351562 202.230469 112.253906 202.230469 C 115.824219 202.230469 119.277344 200.933594 121.972656 198.578125 L 123.464844 197.277344 L 123.464844 244.652344 L 75.019531 216.617188 L 75.019531 187.546875 C 75.019531 181.351562 80.050781 176.3125 86.230469 176.3125 Z M 86.230469 176.3125 " fill-opacity="1" fill-rule="nonzero"/><path fill="#3c4c9b" d="M 138.277344 176.152344 C 144.457031 176.152344 149.488281 181.191406 149.488281 187.386719 C 149.488281 195.574219 156.132812 202.230469 164.300781 202.230469 C 167.871094 202.230469 171.324219 200.933594 174.019531 198.582031 L 175.511719 197.28125 L 175.511719 216.621094 L 127.070312 244.652344 L 127.070312 187.386719 C 127.070312 181.191406 132.09375 176.152344 138.277344 176.152344 Z M 138.277344 176.152344 " fill-opacity="1" fill-rule="nonzero"/><g clip-path="url(#3cf68ee7b6)"><path fill="#0c0d1b" d="M 123.914062 124.96875 L 71.863281 155.082031 C 71.199219 155.46875 70.738281 156.113281 70.578125 156.847656 C 70.539062 157.035156 70.515625 157.234375 70.515625 157.429688 L 70.515625 217.664062 C 70.515625 218.632812 71.03125 219.523438 71.863281 220.007812 L 123.914062 250.125 C 123.925781 250.128906 123.933594 250.136719 123.945312 250.144531 C 123.96875 250.15625 123.996094 250.167969 124.019531 250.183594 C 124.066406 250.207031 124.113281 250.230469 124.164062 250.25 C 124.1875 250.261719 124.207031 250.273438 124.230469 250.28125 C 124.296875 250.3125 124.363281 250.335938 124.429688 250.355469 C 124.453125 250.363281 124.480469 250.371094 124.507812 250.378906 C 124.566406 250.394531 124.621094 250.410156 124.675781 250.421875 C 124.699219 250.425781 124.714844 250.433594 124.734375 250.433594 C 124.8125 250.449219 124.886719 250.460938 124.960938 250.46875 C 124.980469 250.472656 125 250.472656 125.023438 250.472656 C 125.101562 250.480469 125.183594 250.488281 125.265625 250.488281 C 125.34375 250.488281 125.425781 250.480469 125.507812 250.472656 C 125.527344 250.472656 125.546875 250.472656 125.570312 250.46875 C 125.644531 250.460938 125.71875 250.449219 125.792969 250.433594 C 125.8125 250.429688 125.832031 250.425781 125.851562 250.421875 C 125.910156 250.410156 125.964844 250.394531 126.019531 250.378906 C 126.046875 250.371094 126.074219 250.363281 126.097656 250.355469 C 126.167969 250.335938 126.234375 250.308594 126.296875 250.28125 C 126.320312 250.273438 126.34375 250.261719 126.363281 250.25 C 126.414062 250.230469 126.464844 250.207031 126.507812 250.183594 C 126.535156 250.167969 126.558594 250.15625 126.582031 250.144531 C 126.59375 250.136719 126.605469 250.132812 126.613281 250.125 L 178.667969 220.007812 C 179.5 219.523438 180.015625 218.632812 180.015625 217.664062 L 180.015625 157.433594 C 180.015625 156.464844 179.5 155.570312 178.667969 155.085938 L 126.617188 124.96875 C 125.78125 124.484375 124.75 124.484375 123.914062 124.96875 Z M 75.917969 216.101562 L 75.917969 187.546875 C 75.917969 181.851562 80.542969 177.214844 86.226562 177.214844 C 91.910156 177.214844 96.535156 181.851562 96.535156 187.546875 C 96.535156 187.585938 96.535156 187.625 96.539062 187.660156 C 96.6875 196.21875 103.679688 203.132812 112.253906 203.132812 C 116.195312 203.132812 119.800781 201.671875 122.558594 199.261719 L 122.558594 243.085938 Z M 174.613281 199.261719 L 174.613281 216.101562 L 127.96875 243.085938 L 127.96875 187.386719 C 127.96875 181.691406 132.59375 177.054688 138.277344 177.054688 C 143.960938 177.054688 148.585938 181.691406 148.585938 187.386719 C 148.585938 196.070312 155.632812 203.136719 164.300781 203.136719 C 168.242188 203.132812 171.847656 201.671875 174.613281 199.261719 Z M 174.613281 158.996094 L 174.613281 187.386719 C 174.613281 193.082031 169.988281 197.714844 164.304688 197.714844 C 158.621094 197.714844 153.996094 193.082031 153.996094 187.386719 C 153.996094 178.699219 146.945312 171.636719 138.277344 171.636719 C 132.875 171.636719 128.097656 174.386719 125.265625 178.5625 C 123.558594 181.082031 122.5625 184.121094 122.5625 187.386719 C 122.5625 193.082031 117.9375 197.714844 112.253906 197.714844 C 106.570312 197.714844 101.945312 193.082031 101.945312 187.386719 C 101.945312 187.347656 101.945312 187.308594 101.945312 187.273438 C 101.796875 178.714844 94.804688 171.796875 86.230469 171.796875 C 82.289062 171.796875 78.683594 173.261719 75.921875 175.671875 L 75.921875 158.996094 L 79.632812 156.847656 L 125.265625 130.441406 Z M 174.613281 158.996094 " fill-opacity="1" fill-rule="nonzero"/></g><g fill="#0c0d1b" fill-opacity="1"><g transform="translate(198.1878, 194.624987)"><g><path d="M 14.109375 0 L 6.828125 -8.90625 L 6.203125 -8.90625 L 6.203125 0 L 1.921875 0 L 1.921875 -19.5 L 6.203125 -19.5 L 6.203125 -12.609375 L 6.953125 -12.609375 L 13.328125 -19.5 L 18.84375 -19.5 L 10.4375 -10.828125 L 19.828125 0 Z M 14.109375 0 "/></g></g></g><g fill="#0c0d1b" fill-opacity="1"><g transform="translate(216.804596, 194.624987)"><g><path d="M 17.75 -13 L 22.359375 -13 L 17.9375 0 L 13.546875 0 L 11.109375 -7.34375 L 8.671875 0 L 4.328125 0 L -0.15625 -13 L 4.546875 -13 L 6.734375 -4.390625 L 9.484375 -13 L 12.734375 -13 L 15.53125 -4.359375 Z M 17.75 -13 "/></g></g></g><g fill="#0c0d1b" fill-opacity="1"><g transform="translate(238.507967, 194.624987)"><g><path d="M 4.0625 -15.171875 C 3.457031 -15.171875 2.925781 -15.398438 2.46875 -15.859375 C 2.007812 -16.316406 1.78125 -16.847656 1.78125 -17.453125 C 1.78125 -18.078125 2.007812 -18.613281 2.46875 -19.0625 C 2.925781 -19.507812 3.457031 -19.734375 4.0625 -19.734375 C 4.6875 -19.734375 5.222656 -19.507812 5.671875 -19.0625 C 6.117188 -18.613281 6.34375 -18.078125 6.34375 -17.453125 C 6.34375 -16.847656 6.117188 -16.316406 5.671875 -15.859375 C 5.222656 -15.398438 4.6875 -15.171875 4.0625 -15.171875 Z M 1.984375 0 L 1.984375 -13 L 6.109375 -13 L 6.109375 0 Z M 1.984375 0 "/></g></g></g><g fill="#0c0d1b" fill-opacity="1"><g transform="translate(246.110549, 194.624987)"><g><path d="M 12.25 -13 L 6.796875 -3.4375 L 12.0625 -3.4375 L 12.0625 0 L 0.6875 0 L 6.109375 -9.5625 L 1.359375 -9.5625 L 1.359375 -13 Z M 12.25 -13 "/></g></g></g><g fill="#0c0d1b" fill-opacity="1"><g transform="translate(258.294254, 194.624987)"><g><path d="M 12.25 -13 L 6.796875 -3.4375 L 12.0625 -3.4375 L 12.0625 0 L 0.6875 0 L 6.109375 -9.5625 L 1.359375 -9.5625 L 1.359375 -13 Z M 12.25 -13 "/></g></g></g><g fill="#0c0d1b" fill-opacity="1"><g transform="translate(270.47796, 194.624987)"><g><path d="M 1.921875 0 L 1.921875 -22.265625 L 6.078125 -22.265625 L 6.078125 0 Z M 1.921875 0 "/></g></g></g><g fill="#0c0d1b" fill-opacity="1"><g transform="translate(277.950579, 194.624987)"><g><path d="M 15.140625 -6.53125 L 15.140625 -5.8125 L 5.203125 -5.8125 C 5.285156 -4.882812 5.578125 -4.15625 6.078125 -3.625 C 6.578125 -3.09375 7.289062 -2.828125 8.21875 -2.828125 C 9.65625 -2.828125 10.566406 -3.378906 10.953125 -4.484375 L 14.953125 -4.484375 C 14.628906 -3.078125 13.882812 -1.929688 12.71875 -1.046875 C 11.5625 -0.171875 10.082031 0.265625 8.28125 0.265625 C 6.832031 0.265625 5.5625 -0.015625 4.46875 -0.578125 C 3.375 -1.148438 2.519531 -1.941406 1.90625 -2.953125 C 1.300781 -3.972656 1 -5.15625 1 -6.5 C 1 -7.863281 1.300781 -9.054688 1.90625 -10.078125 C 2.519531 -11.097656 3.367188 -11.890625 4.453125 -12.453125 C 5.535156 -13.015625 6.769531 -13.296875 8.15625 -13.296875 C 9.5625 -13.296875 10.785156 -13.015625 11.828125 -12.453125 C 12.867188 -11.890625 13.679688 -11.101562 14.265625 -10.09375 C 14.847656 -9.082031 15.140625 -7.894531 15.140625 -6.53125 Z M 8.21875 -10.109375 C 7.488281 -10.109375 6.898438 -9.953125 6.453125 -9.640625 C 6.003906 -9.328125 5.671875 -8.882812 5.453125 -8.3125 L 10.859375 -8.3125 C 10.640625 -8.882812 10.316406 -9.328125 9.890625 -9.640625 C 9.472656 -9.953125 8.914062 -10.109375 8.21875 -10.109375 Z M 8.21875 -10.109375 "/></g></g></g></svg>