<svg xmlns="http://www.w3.org/2000/svg" xmlns:xlink="http://www.w3.org/1999/xlink" width="500" zoomAndPan="magnify" viewBox="0 0 375 374.999991" height="500" preserveAspectRatio="xMidYMid meet" version="1.0"><defs><g/><clipPath id="31e935e980"><path d="M 132.722656 99.144531 L 242.109375 99.144531 L 242.109375 225.144531 L 132.722656 225.144531 Z M 132.722656 99.144531 " clip-rule="nonzero"/></clipPath></defs><path fill="#283466" d="M 238.039062 131.347656 L 188.695312 102.796875 L 187.359375 102.023438 L 186.023438 102.796875 L 140.386719 129.199219 L 136.679688 131.347656 L 135.34375 132.117188 L 135.34375 156.222656 L 139.769531 152.355469 C 142.144531 150.285156 145.183594 149.144531 148.324219 149.144531 C 155.390625 149.144531 161.242188 154.902344 161.363281 161.984375 L 161.363281 162.019531 L 161.367188 162.050781 C 161.367188 169.230469 167.191406 175.066406 174.347656 175.066406 C 181.507812 175.066406 187.328125 169.230469 187.328125 162.054688 C 187.328125 159.433594 188.105469 156.902344 189.574219 154.734375 C 192.011719 151.132812 196.050781 148.984375 200.371094 148.984375 C 207.566406 148.984375 213.414062 154.847656 213.414062 162.054688 C 213.414062 169.230469 219.238281 175.066406 226.398438 175.066406 C 233.554688 175.066406 239.378906 169.230469 239.378906 162.054688 L 239.378906 132.121094 Z M 238.039062 131.347656 " fill-opacity="1" fill-rule="nonzero"/><path fill="#1eb8d1" d="M 148.324219 150.984375 C 154.503906 150.984375 159.535156 156.023438 159.535156 162.21875 C 159.535156 162.246094 159.535156 162.273438 159.539062 162.316406 C 159.605469 166.21875 161.175781 169.886719 163.964844 172.632812 C 166.757812 175.386719 170.441406 176.902344 174.347656 176.902344 C 177.917969 176.902344 181.371094 175.605469 184.066406 173.25 L 185.558594 171.949219 L 185.558594 219.324219 L 137.113281 191.289062 L 137.113281 162.21875 C 137.113281 156.023438 142.144531 150.984375 148.324219 150.984375 Z M 148.324219 150.984375 " fill-opacity="1" fill-rule="nonzero"/><path fill="#3c4c9b" d="M 200.371094 150.824219 C 206.550781 150.824219 211.582031 155.863281 211.582031 162.058594 C 211.582031 170.242188 218.226562 176.902344 226.394531 176.902344 C 229.964844 176.902344 233.417969 175.605469 236.113281 173.253906 L 237.605469 171.953125 L 237.605469 191.292969 L 189.164062 219.324219 L 189.164062 162.058594 C 189.164062 155.863281 194.1875 150.824219 200.371094 150.824219 Z M 200.371094 150.824219 " fill-opacity="1" fill-rule="nonzero"/><g clip-path="url(#31e935e980)"><path fill="#0c0d1b" d="M 186.007812 99.640625 L 133.957031 129.753906 C 133.292969 130.140625 132.832031 130.785156 132.671875 131.519531 C 132.632812 131.707031 132.609375 131.90625 132.609375 132.101562 L 132.609375 192.335938 C 132.609375 193.304688 133.125 194.195312 133.957031 194.679688 L 186.007812 224.796875 C 186.019531 224.800781 186.027344 224.808594 186.039062 224.816406 C 186.0625 224.828125 186.089844 224.839844 186.113281 224.851562 C 186.160156 224.878906 186.207031 224.902344 186.257812 224.921875 C 186.28125 224.933594 186.300781 224.945312 186.324219 224.953125 C 186.390625 224.984375 186.457031 225.003906 186.523438 225.027344 C 186.546875 225.035156 186.574219 225.042969 186.601562 225.050781 C 186.660156 225.066406 186.714844 225.082031 186.769531 225.09375 C 186.789062 225.097656 186.808594 225.105469 186.828125 225.105469 C 186.90625 225.121094 186.980469 225.132812 187.054688 225.140625 C 187.074219 225.144531 187.09375 225.144531 187.117188 225.144531 C 187.195312 225.152344 187.277344 225.15625 187.359375 225.15625 C 187.4375 225.15625 187.519531 225.152344 187.601562 225.144531 C 187.621094 225.144531 187.640625 225.144531 187.664062 225.140625 C 187.738281 225.132812 187.8125 225.121094 187.886719 225.105469 C 187.90625 225.101562 187.925781 225.097656 187.945312 225.09375 C 188.003906 225.082031 188.054688 225.066406 188.113281 225.050781 C 188.140625 225.042969 188.167969 225.035156 188.191406 225.027344 C 188.261719 225.003906 188.328125 224.980469 188.390625 224.953125 C 188.414062 224.945312 188.433594 224.933594 188.457031 224.921875 C 188.507812 224.902344 188.558594 224.878906 188.601562 224.851562 C 188.628906 224.839844 188.652344 224.828125 188.675781 224.816406 C 188.683594 224.808594 188.699219 224.804688 188.707031 224.796875 L 240.761719 194.679688 C 241.59375 194.195312 242.109375 193.304688 242.109375 192.335938 L 242.109375 132.105469 C 242.109375 131.136719 241.59375 130.242188 240.761719 129.757812 L 188.710938 99.640625 C 187.875 99.15625 186.84375 99.15625 186.007812 99.640625 Z M 138.011719 190.769531 L 138.011719 162.21875 C 138.011719 156.519531 142.636719 151.886719 148.320312 151.886719 C 154.003906 151.886719 158.628906 156.519531 158.628906 162.21875 C 158.628906 162.257812 158.628906 162.296875 158.632812 162.332031 C 158.777344 170.890625 165.773438 177.804688 174.347656 177.804688 C 178.289062 177.804688 181.894531 176.34375 184.652344 173.933594 L 184.652344 217.757812 Z M 236.707031 173.933594 L 236.707031 190.769531 L 190.0625 217.757812 L 190.0625 162.058594 C 190.0625 156.359375 194.6875 151.726562 200.371094 151.726562 C 206.054688 151.726562 210.679688 156.359375 210.679688 162.058594 C 210.679688 170.742188 217.726562 177.808594 226.394531 177.808594 C 230.335938 177.804688 233.941406 176.34375 236.707031 173.933594 Z M 236.707031 133.667969 L 236.707031 162.058594 C 236.707031 167.753906 232.082031 172.386719 226.398438 172.386719 C 220.714844 172.386719 216.089844 167.753906 216.089844 162.058594 C 216.089844 153.371094 209.039062 146.308594 200.371094 146.308594 C 194.96875 146.308594 190.191406 149.058594 187.359375 153.234375 C 185.652344 155.753906 184.65625 158.792969 184.65625 162.058594 C 184.65625 167.753906 180.03125 172.386719 174.347656 172.386719 C 168.664062 172.386719 164.039062 167.753906 164.039062 162.058594 C 164.039062 162.019531 164.039062 161.980469 164.039062 161.945312 C 163.890625 153.386719 156.898438 146.46875 148.324219 146.46875 C 144.382812 146.46875 140.777344 147.933594 138.015625 150.34375 L 138.015625 133.667969 L 141.726562 131.519531 L 187.359375 105.113281 Z M 236.707031 133.667969 " fill-opacity="1" fill-rule="nonzero"/></g><g fill="#0c0d1b" fill-opacity="1"><g transform="translate(139.555572, 254.832463)"><g><path d="M 14.109375 0 L 6.828125 -8.90625 L 6.203125 -8.90625 L 6.203125 0 L 1.921875 0 L 1.921875 -19.5 L 6.203125 -19.5 L 6.203125 -12.609375 L 6.953125 -12.609375 L 13.328125 -19.5 L 18.84375 -19.5 L 10.4375 -10.828125 L 19.828125 0 Z M 14.109375 0 "/></g></g></g><g fill="#0c0d1b" fill-opacity="1"><g transform="translate(158.172369, 254.832463)"><g><path d="M 17.75 -13 L 22.359375 -13 L 17.9375 0 L 13.546875 0 L 11.109375 -7.34375 L 8.671875 0 L 4.328125 0 L -0.15625 -13 L 4.546875 -13 L 6.734375 -4.390625 L 9.484375 -13 L 12.734375 -13 L 15.53125 -4.359375 Z M 17.75 -13 "/></g></g></g><g fill="#0c0d1b" fill-opacity="1"><g transform="translate(179.87574, 254.832463)"><g><path d="M 4.0625 -15.171875 C 3.457031 -15.171875 2.925781 -15.398438 2.46875 -15.859375 C 2.007812 -16.316406 1.78125 -16.847656 1.78125 -17.453125 C 1.78125 -18.078125 2.007812 -18.613281 2.46875 -19.0625 C 2.925781 -19.507812 3.457031 -19.734375 4.0625 -19.734375 C 4.6875 -19.734375 5.222656 -19.507812 5.671875 -19.0625 C 6.117188 -18.613281 6.34375 -18.078125 6.34375 -17.453125 C 6.34375 -16.847656 6.117188 -16.316406 5.671875 -15.859375 C 5.222656 -15.398438 4.6875 -15.171875 4.0625 -15.171875 Z M 1.984375 0 L 1.984375 -13 L 6.109375 -13 L 6.109375 0 Z M 1.984375 0 "/></g></g></g><g fill="#0c0d1b" fill-opacity="1"><g transform="translate(187.478321, 254.832463)"><g><path d="M 12.25 -13 L 6.796875 -3.4375 L 12.0625 -3.4375 L 12.0625 0 L 0.6875 0 L 6.109375 -9.5625 L 1.359375 -9.5625 L 1.359375 -13 Z M 12.25 -13 "/></g></g></g><g fill="#0c0d1b" fill-opacity="1"><g transform="translate(199.662027, 254.832463)"><g><path d="M 12.25 -13 L 6.796875 -3.4375 L 12.0625 -3.4375 L 12.0625 0 L 0.6875 0 L 6.109375 -9.5625 L 1.359375 -9.5625 L 1.359375 -13 Z M 12.25 -13 "/></g></g></g><g fill="#0c0d1b" fill-opacity="1"><g transform="translate(211.845732, 254.832463)"><g><path d="M 1.921875 0 L 1.921875 -22.265625 L 6.078125 -22.265625 L 6.078125 0 Z M 1.921875 0 "/></g></g></g><g fill="#0c0d1b" fill-opacity="1"><g transform="translate(219.318352, 254.832463)"><g><path d="M 15.140625 -6.53125 L 15.140625 -5.8125 L 5.203125 -5.8125 C 5.285156 -4.882812 5.578125 -4.15625 6.078125 -3.625 C 6.578125 -3.09375 7.289062 -2.828125 8.21875 -2.828125 C 9.65625 -2.828125 10.566406 -3.378906 10.953125 -4.484375 L 14.953125 -4.484375 C 14.628906 -3.078125 13.882812 -1.929688 12.71875 -1.046875 C 11.5625 -0.171875 10.082031 0.265625 8.28125 0.265625 C 6.832031 0.265625 5.5625 -0.015625 4.46875 -0.578125 C 3.375 -1.148438 2.519531 -1.941406 1.90625 -2.953125 C 1.300781 -3.972656 1 -5.15625 1 -6.5 C 1 -7.863281 1.300781 -9.054688 1.90625 -10.078125 C 2.519531 -11.097656 3.367188 -11.890625 4.453125 -12.453125 C 5.535156 -13.015625 6.769531 -13.296875 8.15625 -13.296875 C 9.5625 -13.296875 10.785156 -13.015625 11.828125 -12.453125 C 12.867188 -11.890625 13.679688 -11.101562 14.265625 -10.09375 C 14.847656 -9.082031 15.140625 -7.894531 15.140625 -6.53125 Z M 8.21875 -10.109375 C 7.488281 -10.109375 6.898438 -9.953125 6.453125 -9.640625 C 6.003906 -9.328125 5.671875 -8.882812 5.453125 -8.3125 L 10.859375 -8.3125 C 10.640625 -8.882812 10.316406 -9.328125 9.890625 -9.640625 C 9.472656 -9.953125 8.914062 -10.109375 8.21875 -10.109375 Z M 8.21875 -10.109375 "/></g></g></g></svg>